<svg width="28.000000" height="28.000000" viewBox="0 0 28 28" fill="none" xmlns="http://www.w3.org/2000/svg" xmlns:xlink="http://www.w3.org/1999/xlink">
	<desc>
			Created with Pixso.
	</desc>
	<defs>
		<clipPath id="clip78_493">
			<rect id="iconfinder_6_4753731 1" width="28.000000" height="28.000000" fill="white" fill-opacity="0"/>
		</clipPath>
	</defs>
	<rect id="iconfinder_6_4753731 1" width="28.000000" height="28.000000" fill="#FFFFFF" fill-opacity="0"/>
	<g clip-path="url(#clip78_493)">
		<path id="Vector" d="M14 11.37C14.49 11.37 14.9 11.78 14.9 12.27C14.9 12.73 15.26 13.09 15.72 13.09C16.17 13.09 16.54 12.73 16.54 12.27C16.54 11.16 15.81 10.22 14.81 9.88L14.81 9.42C14.81 8.96 14.45 8.59 14 8.59C13.54 8.59 13.17 8.96 13.17 9.42L13.17 9.88C12.18 10.22 11.45 11.16 11.45 12.27C11.45 13.68 12.59 14.82 14 14.82C14.49 14.82 14.9 15.22 14.9 15.72C14.9 16.21 14.49 16.62 14 16.62C13.5 16.62 13.09 16.21 13.09 15.72C13.09 15.26 12.73 14.9 12.27 14.9C11.82 14.9 11.45 15.26 11.45 15.72C11.45 16.83 12.18 17.77 13.17 18.11L13.17 18.57C13.17 19.03 13.54 19.4 14 19.4C14.45 19.4 14.81 19.03 14.81 18.57L14.81 18.11C15.81 17.77 16.54 16.83 16.54 15.72C16.54 14.32 15.4 13.18 14 13.18C13.5 13.18 13.09 12.77 13.09 12.27C13.09 11.78 13.5 11.37 14 11.37ZM20.87 18.55C21.27 18.76 21.76 18.61 21.97 18.21C22.66 16.92 23.02 15.46 23.02 14C23.02 9.02 18.97 4.97 14 4.97C9.02 4.97 4.97 9.02 4.97 14C4.97 18.97 9.02 23.02 14 23.02C15.44 23.02 16.88 22.67 18.15 22C18.55 21.8 18.71 21.3 18.5 20.9C18.29 20.5 17.8 20.34 17.39 20.55C16.34 21.1 15.2 21.38 14 21.38C9.93 21.38 6.61 18.07 6.61 14C6.61 9.93 9.93 6.61 14 6.61C18.07 6.61 21.38 9.93 21.38 14C21.38 15.2 21.08 16.39 20.53 17.44C20.31 17.84 20.47 18.34 20.87 18.55ZM14 1.69C11.62 1.69 9.31 2.37 7.32 3.66C6.94 3.9 6.83 4.41 7.08 4.79C7.33 5.17 7.83 5.28 8.22 5.03C9.94 3.92 11.94 3.33 14 3.33C19.87 3.33 24.66 8.12 24.66 14C24.66 19.87 19.87 24.66 14 24.66C8.12 24.66 3.33 19.87 3.33 14C3.33 11.96 3.91 9.97 5 8.26C5.25 7.88 5.14 7.37 4.75 7.13C4.37 6.88 3.87 7 3.62 7.38C2.36 9.35 1.69 11.64 1.69 14C1.69 20.78 7.21 26.3 14 26.3C20.78 26.3 26.3 20.78 26.3 14C26.3 7.21 20.78 1.69 14 1.69Z" fill="#16DBCC" fill-opacity="1.000000" fill-rule="nonzero"/>
	</g>
</svg>
