<svg width="55.000000" height="55.195068" viewBox="0 0 55 55.1951" fill="none" xmlns="http://www.w3.org/2000/svg" xmlns:xlink="http://www.w3.org/1999/xlink">
	<desc>
			Created with Pixso.
	</desc>
	<defs>
		<clipPath id="clip78_493">
			<rect id="iconfinder_6_4753731 1" width="28.000000" height="28.099293" transform="translate(14.000000 14.049683)" fill="white" fill-opacity="0"/>
		</clipPath>
	</defs>
	<ellipse id="Ellipse 10" cx="27.500000" cy="27.597534" rx="27.500000" ry="27.597521" fill="#DCFAF8" fill-opacity="1.000000"/>
	<rect id="iconfinder_6_4753731 1" width="28.000000" height="28.099293" transform="translate(14.000000 14.049683)" fill="#FFFFFF" fill-opacity="0"/>
	<g clip-path="url(#clip78_493)">
		<path id="Vector" d="M28 25.46C28.49 25.46 28.9 25.87 28.9 26.37C28.9 26.82 29.26 27.19 29.72 27.19C30.17 27.19 30.54 26.82 30.54 26.37C30.54 25.25 29.81 24.31 28.81 23.97L28.81 23.5C28.81 23.05 28.45 22.68 28 22.68C27.54 22.68 27.17 23.05 27.17 23.5L27.17 23.97C26.18 24.31 25.45 25.25 25.45 26.37C25.45 27.77 26.59 28.92 28 28.92C28.49 28.92 28.9 29.32 28.9 29.82C28.9 30.32 28.49 30.73 28 30.73C27.5 30.73 27.09 30.32 27.09 29.82C27.09 29.37 26.73 29 26.27 29C25.82 29 25.45 29.37 25.45 29.82C25.45 30.94 26.18 31.88 27.17 32.22L27.17 32.69C27.17 33.15 27.54 33.51 28 33.51C28.45 33.51 28.81 33.15 28.81 32.69L28.81 32.22C29.81 31.88 30.54 30.94 30.54 29.82C30.54 28.42 29.4 27.27 28 27.27C27.5 27.27 27.09 26.87 27.09 26.37C27.09 25.87 27.5 25.46 28 25.46ZM34.87 32.67C35.27 32.88 35.76 32.72 35.97 32.32C36.66 31.03 37.02 29.57 37.02 28.09C37.02 23.1 32.97 19.04 28 19.04C23.02 19.04 18.97 23.1 18.97 28.09C18.97 33.09 23.02 37.15 28 37.15C29.44 37.15 30.88 36.8 32.15 36.13C32.55 35.92 32.71 35.43 32.5 35.02C32.29 34.62 31.8 34.46 31.39 34.67C30.34 35.22 29.2 35.5 28 35.5C23.93 35.5 20.61 32.18 20.61 28.09C20.61 24.01 23.93 20.69 28 20.69C32.07 20.69 35.38 24.01 35.38 28.09C35.38 29.3 35.08 30.5 34.53 31.55C34.31 31.95 34.47 32.45 34.87 32.67ZM28 15.75C25.62 15.75 23.31 16.43 21.32 17.72C20.94 17.97 20.83 18.48 21.08 18.86C21.33 19.24 21.83 19.35 22.22 19.1C23.94 17.99 25.94 17.39 28 17.39C33.87 17.39 38.66 22.19 38.66 28.09C38.66 33.99 33.87 38.79 28 38.79C22.12 38.79 17.33 33.99 17.33 28.09C17.33 26.05 17.91 24.06 19 22.34C19.25 21.96 19.14 21.45 18.75 21.2C18.37 20.96 17.87 21.07 17.62 21.45C16.36 23.44 15.69 25.73 15.69 28.09C15.69 34.9 21.21 40.44 28 40.44C34.78 40.44 40.3 34.9 40.3 28.09C40.3 21.29 34.78 15.75 28 15.75Z" fill="#16DBCC" fill-opacity="1.000000" fill-rule="nonzero"/>
	</g>
</svg>
