<svg width="24.982666" height="25.000000" viewBox="0 0 24.9827 25" fill="none" xmlns="http://www.w3.org/2000/svg" xmlns:xlink="http://www.w3.org/1999/xlink">
	<desc>
			Created with Pixso.
	</desc>
	<defs>
		<clipPath id="clip105_448">
			<rect id="002-notification-1" width="24.982639" height="25.000000" fill="white" fill-opacity="0"/>
		</clipPath>
	</defs>
	<rect id="002-notification-1" width="24.982639" height="25.000000" fill="#FFFFFF" fill-opacity="0"/>
	<g clip-path="url(#clip105_448)">
		<path id="Vector" d="M11.43 25C9.28 25 7.53 23.24 7.53 21.09C7.53 20.66 7.88 20.31 8.31 20.31C8.74 20.31 9.09 20.66 9.09 21.09C9.09 22.38 10.14 23.43 11.43 23.43C12.72 23.43 13.77 22.38 13.77 21.09C13.77 20.66 14.12 20.31 14.55 20.31C14.98 20.31 15.33 20.66 15.33 21.09C15.33 23.24 13.58 25 11.43 25Z" fill="#FE5C73" fill-opacity="1.000000" fill-rule="nonzero"/>
		<path id="Vector" d="M20.02 21.87L2.84 21.87C1.84 21.87 1.02 21.05 1.02 20.05C1.02 19.51 1.25 19.01 1.66 18.66C1.68 18.64 1.71 18.62 1.74 18.6C3.27 17.26 4.14 15.35 4.14 13.32L4.14 10.41C4.14 6.39 7.41 3.12 11.43 3.12C11.6 3.12 11.78 3.12 11.94 3.15C12.37 3.22 12.66 3.63 12.58 4.05C12.51 4.48 12.1 4.76 11.69 4.69C11.6 4.68 11.51 4.68 11.43 4.68C8.27 4.68 5.7 7.25 5.7 10.41L5.7 13.32C5.7 15.83 4.6 18.22 2.68 19.85C2.67 19.86 2.65 19.87 2.64 19.89C2.61 19.92 2.58 19.98 2.58 20.05C2.58 20.19 2.7 20.31 2.84 20.31L20.02 20.31C20.16 20.31 20.28 20.19 20.28 20.05C20.28 19.97 20.25 19.92 20.22 19.89C20.21 19.87 20.19 19.86 20.18 19.85C18.26 18.21 17.15 15.83 17.15 13.32L17.15 12.18C17.15 11.75 17.5 11.4 17.94 11.4C18.37 11.4 18.72 11.75 18.72 12.18L18.72 13.32C18.72 15.35 19.59 17.27 21.12 18.6C21.15 18.62 21.18 18.64 21.2 18.66C21.61 19.01 21.84 19.51 21.84 20.05C21.84 21.05 21.02 21.87 20.02 21.87Z" fill="#FE5C73" fill-opacity="1.000000" fill-rule="nonzero"/>
		<path id="Vector" d="M18.72 10.41C15.85 10.41 13.51 8.08 13.51 5.2C13.51 2.33 15.85 0 18.72 0C21.59 0 23.92 2.33 23.92 5.2C23.92 8.08 21.59 10.41 18.72 10.41ZM18.72 1.56C16.71 1.56 15.07 3.19 15.07 5.2C15.07 7.21 16.71 8.85 18.72 8.85C20.72 8.85 22.36 7.21 22.36 5.2C22.36 3.19 20.72 1.56 18.72 1.56Z" fill="#FE5C73" fill-opacity="1.000000" fill-rule="nonzero"/>
	</g>
</svg>
