<svg width="55.000000" height="55.195068" viewBox="0 0 55 55.1951" fill="none" xmlns="http://www.w3.org/2000/svg" xmlns:xlink="http://www.w3.org/1999/xlink">
	<desc>
			Created with Pixso.
	</desc>
	<defs>
		<clipPath id="clip78_474">
			<rect id="iconfinder_paypal_payment_pay_5340264 1" width="28.000000" height="28.099293" transform="translate(14.000000 14.049561)" fill="white" fill-opacity="0"/>
		</clipPath>
	</defs>
	<ellipse id="Ellipse 10" cx="27.500000" cy="27.597534" rx="27.500000" ry="27.597521" fill="#E7EDFF" fill-opacity="1.000000"/>
	<rect id="iconfinder_paypal_payment_pay_5340264 1" width="28.000000" height="28.099293" transform="translate(14.000000 14.049561)" fill="#471EE8" fill-opacity="0"/>
	<g clip-path="url(#clip78_474)">
		<path id="Vector" d="M36.99 22.46C36.98 20.92 36.36 19.45 35.27 18.37C34.19 17.29 32.72 16.68 31.19 16.68L22.75 16.68C22.54 16.68 22.33 16.75 22.17 16.88C22.01 17.02 21.9 17.21 21.87 17.42L18.88 36.25C18.86 36.38 18.87 36.5 18.9 36.63C18.94 36.75 19 36.86 19.08 36.95C19.16 37.05 19.26 37.13 19.38 37.19C19.49 37.24 19.62 37.27 19.74 37.27L23.36 37.27L23.17 38.49C23.14 38.62 23.15 38.75 23.19 38.87C23.22 38.99 23.28 39.11 23.37 39.21C23.45 39.3 23.55 39.38 23.67 39.43C23.79 39.48 23.91 39.51 24.04 39.51L28.11 39.51C28.32 39.51 28.52 39.44 28.68 39.31C28.84 39.17 28.95 38.99 28.98 38.78L29.86 33.42L32.62 33.42C34.34 33.41 35.99 32.72 37.21 31.49C38.43 30.26 39.11 28.61 39.12 26.87L39.12 26.63C39.12 25.81 38.92 25.01 38.55 24.29C38.18 23.56 37.65 22.93 36.99 22.46ZM23.49 18.44L31.19 18.44C32.11 18.44 33 18.75 33.71 19.33C34.43 19.9 34.93 20.71 35.14 21.61C34.76 21.52 34.37 21.47 33.98 21.47L26.68 21.47C26.47 21.47 26.27 21.54 26.11 21.68C25.95 21.81 25.84 22 25.81 22.21L25.29 25.46C25.25 25.69 25.31 25.93 25.45 26.12C25.59 26.31 25.79 26.44 26.03 26.48C26.26 26.52 26.5 26.46 26.69 26.32C26.88 26.18 27 25.97 27.04 25.74L27.44 23.21L34 23.21C34.42 23.21 34.83 23.29 35.22 23.45C35.06 24.82 34.4 26.09 33.36 27.01C32.33 27.93 31 28.44 29.62 28.45L25.56 28.45C25.35 28.44 25.15 28.51 24.99 28.65C24.83 28.78 24.72 28.97 24.69 29.17L23.62 35.51L20.77 35.51L23.49 18.44ZM37.37 26.87C37.36 28.14 36.86 29.35 35.97 30.25C35.08 31.15 33.88 31.65 32.62 31.66L29.12 31.66C28.91 31.66 28.7 31.73 28.54 31.86C28.38 32 28.28 32.18 28.24 32.39L27.37 37.75L25.06 37.75L25.25 36.53L26.3 30.22L29.61 30.22C31.24 30.21 32.82 29.67 34.12 28.66C35.41 27.66 36.33 26.26 36.75 24.67C37.15 25.24 37.37 25.93 37.37 26.63L37.37 26.87Z" fill="#396AFF" fill-opacity="1.000000" fill-rule="nonzero"/>
	</g>
</svg>
