<svg width="26.000023" height="22.598633" viewBox="0 0 26 22.5986" fill="none" xmlns="http://www.w3.org/2000/svg" xmlns:xlink="http://www.w3.org/1999/xlink">
	<desc>
			Created with Pixso.
	</desc>
	<defs/>
	<path id="Vector" d="M25.98 0.92C26.1 0.33 25.53 -0.17 24.96 0.05L0.49 9.39C0.19 9.5 0 9.78 0 10.1C-0.01 10.42 0.19 10.7 0.48 10.81L7.36 13.47L7.36 21.83C7.36 22.18 7.6 22.49 7.94 22.57C8.28 22.65 8.64 22.49 8.8 22.17L11.64 16.53L18.58 21.68C19.01 22 19.61 21.8 19.77 21.29C26.25 0.05 25.97 0.97 25.98 0.92ZM19.94 3.6L8.01 12.09L2.88 10.11L19.94 3.6ZM8.88 13.34L19.27 5.94C10.33 15.37 10.8 14.87 10.76 14.93C10.7 15 10.86 14.7 8.88 18.63L8.88 13.34ZM18.62 19.81L12.52 15.28L23.56 3.63L18.62 19.81Z" fill="#FFFFFF" fill-opacity="1.000000" fill-rule="nonzero"/>
</svg>
