<svg width="24.982635" height="25.000000" viewBox="0 0 24.9826 25" fill="none" xmlns="http://www.w3.org/2000/svg" xmlns:xlink="http://www.w3.org/1999/xlink">
	<desc>
			Created with Pixso.
	</desc>
	<defs>
		<clipPath id="clip105_443">
			<rect id="settings 1" width="24.982639" height="25.000000" fill="white" fill-opacity="0"/>
		</clipPath>
	</defs>
	<rect id="settings 1" width="24.982639" height="25.000000" fill="#FFFFFF" fill-opacity="0"/>
	<g clip-path="url(#clip105_443)">
		<path id="Vector" d="M13.27 25L11.7 25C10.43 25 9.4 23.96 9.4 22.69L9.4 22.16C8.86 21.99 8.34 21.77 7.84 21.51L7.46 21.89C6.55 22.8 5.09 22.77 4.21 21.89L3.1 20.78C2.21 19.89 2.19 18.44 3.1 17.52L3.48 17.15C3.21 16.64 3 16.12 2.83 15.58L2.29 15.58C1.03 15.58 0 14.55 0 13.28L0 11.71C0 10.44 1.03 9.41 2.29 9.41L2.83 9.41C3 8.87 3.21 8.35 3.48 7.84L3.1 7.47C2.19 6.56 2.21 5.1 3.1 4.21L4.21 3.1C5.09 2.21 6.55 2.19 7.46 3.1L7.84 3.48C8.34 3.22 8.86 3 9.4 2.83L9.4 2.3C9.4 1.03 10.43 0 11.7 0L13.27 0C14.54 0 15.57 1.03 15.57 2.3L15.57 2.83C16.11 3 16.63 3.22 17.14 3.48L17.51 3.1C18.42 2.19 19.88 2.22 20.77 3.1L21.87 4.21C22.76 5.1 22.78 6.55 21.87 7.47L21.5 7.84C21.76 8.35 21.98 8.87 22.15 9.41L22.68 9.41C23.95 9.41 24.98 10.44 24.98 11.71L24.98 13.28C24.98 14.55 23.95 15.58 22.68 15.58L22.15 15.58C21.98 16.12 21.76 16.64 21.5 17.15L21.87 17.52C22.78 18.43 22.76 19.89 21.87 20.78L20.76 21.89C19.88 22.78 18.42 22.8 17.51 21.89L17.14 21.51C16.63 21.77 16.11 21.99 15.57 22.16L15.57 22.69C15.57 23.96 14.54 25 13.27 25ZM8.08 19.97C8.78 20.39 9.53 20.7 10.32 20.9C10.64 20.99 10.87 21.28 10.87 21.61L10.87 22.69C10.87 23.15 11.24 23.53 11.7 23.53L13.27 23.53C13.73 23.53 14.11 23.15 14.11 22.69L14.11 21.61C14.11 21.28 14.33 20.99 14.66 20.9C15.44 20.7 16.19 20.39 16.89 19.97C17.18 19.8 17.55 19.85 17.78 20.09L18.55 20.85C18.88 21.18 19.41 21.18 19.73 20.85L20.84 19.74C21.16 19.42 21.17 18.89 20.84 18.56L20.07 17.79C19.84 17.56 19.79 17.19 19.96 16.9C20.37 16.2 20.69 15.45 20.89 14.67C20.97 14.34 21.26 14.12 21.6 14.12L22.68 14.12C23.14 14.12 23.51 13.74 23.51 13.28L23.51 11.71C23.51 11.25 23.14 10.87 22.68 10.87L21.6 10.87C21.26 10.87 20.97 10.65 20.89 10.32C20.69 9.54 20.37 8.79 19.96 8.09C19.79 7.8 19.84 7.43 20.07 7.2L20.84 6.43C21.17 6.1 21.16 5.57 20.84 5.25L19.73 4.14C19.41 3.82 18.88 3.81 18.55 4.14L17.78 4.9C17.55 5.14 17.18 5.19 16.89 5.02C16.19 4.6 15.44 4.29 14.66 4.09C14.33 4 14.11 3.71 14.11 3.38L14.11 2.3C14.11 1.84 13.73 1.46 13.27 1.46L11.7 1.46C11.24 1.46 10.87 1.84 10.87 2.3L10.87 3.38C10.87 3.71 10.64 4 10.32 4.09C9.53 4.29 8.78 4.6 8.08 5.02C7.79 5.19 7.43 5.14 7.19 4.9L6.43 4.14C6.1 3.81 5.57 3.81 5.24 4.14L4.13 5.25C3.81 5.57 3.8 6.1 4.13 6.43L4.9 7.2C5.14 7.43 5.18 7.8 5.01 8.09C4.6 8.79 4.29 9.54 4.08 10.32C4 10.65 3.71 10.87 3.38 10.87L2.29 10.87C1.83 10.87 1.46 11.25 1.46 11.71L1.46 13.28C1.46 13.74 1.83 14.12 2.29 14.12L3.38 14.12C3.71 14.12 4 14.34 4.08 14.67C4.29 15.45 4.6 16.2 5.01 16.9C5.18 17.19 5.14 17.56 4.9 17.79L4.13 18.56C3.8 18.89 3.81 19.42 4.13 19.74L5.24 20.85C5.56 21.17 6.09 21.18 6.43 20.85L7.19 20.09C7.36 19.91 7.73 19.76 8.08 19.97Z" fill="#718EBF" fill-opacity="1.000000" fill-rule="nonzero"/>
		<path id="Vector" d="M12.49 17.93C9.49 17.93 7.05 15.49 7.05 12.5C7.05 9.5 9.49 7.06 12.49 7.06C15.48 7.06 17.92 9.5 17.92 12.5C17.92 15.49 15.48 17.93 12.49 17.93ZM12.49 8.52C10.3 8.52 8.51 10.3 8.51 12.5C8.51 14.69 10.3 16.47 12.49 16.47C14.68 16.47 16.46 14.69 16.46 12.5C16.46 10.3 14.68 8.52 12.49 8.52Z" fill="#718EBF" fill-opacity="1.000000" fill-rule="nonzero"/>
	</g>
</svg>
