<svg width="55.000000" height="55.195068" viewBox="0 0 55 55.1951" fill="none" xmlns="http://www.w3.org/2000/svg" xmlns:xlink="http://www.w3.org/1999/xlink">
	<desc>
			Created with Pixso.
	</desc>
	<defs>
		<clipPath id="clip78_488">
			<rect id="iconfinder_business_finance_money-13_2784281 1" width="28.000000" height="28.099293" transform="translate(14.000000 13.046021)" fill="white" fill-opacity="0"/>
		</clipPath>
	</defs>
	<ellipse id="Ellipse 10" cx="27.500000" cy="27.597534" rx="27.500000" ry="27.597521" fill="#FFF5D9" fill-opacity="1.000000"/>
	<rect id="iconfinder_business_finance_money-13_2784281 1" width="28.000000" height="28.099293" transform="translate(14.000000 13.046021)" fill="#FFFFFF" fill-opacity="0"/>
	<g clip-path="url(#clip78_488)">
		<path id="Vector" d="M32.64 37.74L19.67 37.74C18.98 37.74 18.32 37.46 17.82 36.97C17.33 36.48 17.06 35.81 17.06 35.11L17.06 27.35C17.06 26.65 17.33 25.98 17.82 25.49C18.32 25 18.98 24.72 19.67 24.72L32.64 24.72C33.33 24.72 34 25 34.49 25.49C34.98 25.98 35.26 26.65 35.26 27.35L35.26 35.11C35.26 35.81 34.98 36.48 34.49 36.97C34 37.46 33.33 37.74 32.64 37.74ZM19.67 26.37C19.42 26.37 19.17 26.47 18.98 26.65C18.8 26.84 18.7 27.09 18.7 27.35L18.7 35.11C18.7 35.37 18.8 35.62 18.98 35.8C19.17 35.99 19.42 36.09 19.67 36.09L32.64 36.09C32.9 36.09 33.15 35.99 33.33 35.8C33.51 35.62 33.62 35.37 33.62 35.11L33.62 27.35C33.62 27.09 33.51 26.84 33.33 26.65C33.15 26.47 32.9 26.37 32.64 26.37L19.67 26.37Z" fill="#FFBB38" fill-opacity="1.000000" fill-rule="nonzero"/>
		<path id="Vector" d="M36.32 33.3L34.44 33.3C34.22 33.3 34.01 33.22 33.86 33.06C33.7 32.91 33.62 32.7 33.62 32.48C33.62 32.26 33.7 32.05 33.86 31.9C34.01 31.74 34.22 31.66 34.44 31.66L36.32 31.66C36.58 31.66 36.82 31.55 37.01 31.37C37.19 31.19 37.29 30.94 37.29 30.68L37.29 22.91C37.29 22.65 37.19 22.4 37.01 22.22C36.82 22.04 36.58 21.93 36.32 21.93L23.35 21.93C23.09 21.93 22.84 22.04 22.66 22.22C22.48 22.4 22.37 22.65 22.37 22.91L22.37 25.54C22.37 25.76 22.29 25.97 22.13 26.12C21.98 26.28 21.77 26.37 21.55 26.37C21.34 26.37 21.13 26.28 20.97 26.12C20.82 25.97 20.73 25.76 20.73 25.54L20.73 22.91C20.73 22.22 21.01 21.55 21.5 21.06C21.99 20.56 22.66 20.29 23.35 20.29L36.32 20.29C37.01 20.29 37.68 20.56 38.17 21.06C38.66 21.55 38.93 22.22 38.93 22.91L38.93 30.68C38.93 31.37 38.66 32.04 38.17 32.53C37.68 33.03 37.01 33.3 36.32 33.3Z" fill="#FFBB38" fill-opacity="1.000000" fill-rule="nonzero"/>
		<path id="Vector" d="M34.44 31.85L17.88 31.85C17.66 31.85 17.45 31.77 17.3 31.61C17.14 31.46 17.06 31.25 17.06 31.03L17.06 28.27C17.06 28.05 17.14 27.84 17.3 27.68C17.45 27.53 17.66 27.44 17.88 27.44L34.44 27.44C34.65 27.44 34.86 27.53 35.02 27.68C35.17 27.84 35.26 28.05 35.26 28.27L35.26 31.03C35.26 31.25 35.17 31.46 35.02 31.61C34.86 31.77 34.65 31.85 34.44 31.85ZM18.7 30.21L33.62 30.21L33.62 29.09L18.7 29.09L18.7 30.21Z" fill="#FFBB38" fill-opacity="1.000000" fill-rule="nonzero"/>
	</g>
</svg>
