<svg width="20.000000" height="20.000000" viewBox="0 0 20 20" fill="none" xmlns="http://www.w3.org/2000/svg" xmlns:xlink="http://www.w3.org/1999/xlink">
	<desc>
			Created with Pixso.
	</desc>
	<defs>
		<clipPath id="clip203_334">
			<rect id="home 2" width="20.000000" height="20.000000" fill="white" fill-opacity="0"/>
		</clipPath>
	</defs>
	<rect id="home 2" width="20.000000" height="20.000000" fill="#5B73A0" fill-opacity="0"/>
	<g clip-path="url(#clip203_334)">
		<path id="Vector" d="M19.46 8.69C19.45 8.69 19.45 8.69 19.45 8.69L11.3 0.53C10.95 0.19 10.49 0 9.99 0C9.5 0 9.04 0.19 8.69 0.53L0.54 8.69C0.53 8.69 0.53 8.69 0.53 8.7C-0.18 9.41 -0.18 10.58 0.53 11.3C0.86 11.62 1.29 11.81 1.75 11.83C1.77 11.84 1.79 11.84 1.81 11.84L2.14 11.84L2.14 17.84C2.14 19.03 3.1 20 4.29 20L7.48 20C7.81 20 8.07 19.73 8.07 19.41L8.07 14.7C8.07 14.16 8.51 13.72 9.05 13.72L10.93 13.72C11.48 13.72 11.92 14.16 11.92 14.7L11.92 19.41C11.92 19.73 12.18 20 12.5 20L15.7 20C16.88 20 17.85 19.03 17.85 17.84L17.85 11.84L18.15 11.84C18.64 11.84 19.11 11.64 19.45 11.3C20.17 10.58 20.17 9.41 19.46 8.69Z" fill="#B1B1B1" fill-opacity="1.000000" fill-rule="nonzero"/>
	</g>
</svg>
